<svg xmlns="http://www.w3.org/2000/svg" viewBox="-2 -2 104 119"><defs><pattern id="a" width="13" height="22.52" patternUnits="userSpaceOnUse"><path fill="none" stroke="#e3a552" stroke-width=".5" d="m-3.25 16.89 9.75-5.63m-9.75-5.63 9.75 5.63m-13 0 9.75 5.63m-9.75-5.63 9.75-5.63M0 0v11.26M0 0l9.75 5.63M0 11.26v11.26m0 0 9.75-5.63M13 0v11.26M13 0 3.25 5.63M13 11.26v11.26m0 0-9.75-5.63m13 0L6.5 11.26m9.75-5.63L6.5 11.26m13 0-9.75 5.63m9.75-5.63L9.75 5.63M6.5 0v11.26m0 0v11.26"/></pattern></defs><path fill="#7f5c42" stroke="#153b44" stroke-width="2.25" d="m50 0 50 29v57l-50 29L0 86V29z"/><path fill="none" stroke="#d2604a" stroke-width=".7" d="m50 4 46.5 27v53L50 111 3.5 84V31Z"/><path fill="url(#a)" d="m50 4 46.5 27v53L50 111 3.5 84V31Z" opacity=".35"/><g transform="translate(0 1.5)"><rect width="50" height="72" x="25" y="20" fill="#7f5c42" stroke="#c7bfb5" rx="2"/><path stroke="#c7bfb5" d="M25 28h-3m3 8h-3m3 8h-3m3 8h-3m3 8h-3m3 8h-3m3 8h-3m3 8h-3m53-56h3m-3 8h3m-3 8h3m-3 8h3m-3 8h3m-3 8h3m-3 8h3m-3 8h3"/><circle cx="30" cy="26" r="1.4" fill="#d2604a"/><path fill="none" stroke="#fff" stroke-linecap="round" stroke-linejoin="round" stroke-width="2" d="M40 50v18m-7-13h14M33 68l7-11 7 11m13-18v18m-7-13h14M53 68l7-11 7 11"/><path fill="none" stroke="#d2604a" stroke-linecap="round" stroke-linejoin="round" stroke-width="2" d="M50 30v18m-7-13h14M43 48l7-11 7 11"/><path fill="#fff" d="M43.19 82h-1.38v-4.66q0-.53-.05-1.02-.04-.49-.2-.78-.17-.31-.48-.48-.32-.16-.91-.16-.58 0-1.16.29t-1.15.74l.03.39.02.44V82h-1.38v-4.66q0-.54-.05-1.03-.05-.48-.2-.78-.17-.31-.48-.47-.32-.16-.91-.16-.56 0-1.13.28t-1.13.71V82h-1.38v-8.18h1.38v.91q.64-.54 1.28-.84t1.37-.3q.83 0 1.41.35.59.35.87.98.84-.71 1.53-1.02.68-.31 1.47-.31 1.35 0 1.99.82t.64 2.28Zm11.12-4.09q0 2-1.02 3.16-1.03 1.16-2.75 1.16-1.74 0-2.76-1.16t-1.02-3.16 1.02-3.16 2.76-1.16q1.72 0 2.75 1.16 1.02 1.16 1.02 3.16m-1.42 0q0-1.59-.62-2.36t-1.73-.77-1.74.77-.62 2.36q0 1.54.62 2.34.63.79 1.74.79t1.72-.79q.63-.78.63-2.34m10.16-2.59h-.08q-.3-.07-.59-.11t-.69-.03q-.63 0-1.23.28-.59.29-1.14.73V82h-1.38v-8.18h1.38v1.21q.82-.66 1.45-.94.62-.27 1.27-.27.36 0 .52.02l.49.07Zm4.27-2.87h-1.55v-1.43h1.55ZM67.24 82h-1.38v-8.18h1.38Z"/></g></svg>