<svg xmlns="http://www.w3.org/2000/svg" viewBox="-2 -2 104 119" width="104" height="119"><metadata><rdf:RDF xmlns:rdf="http://www.w3.org/1999/02/22-rdf-syntax-ns#" xmlns:dc="http://purl.org/dc/elements/1.1/"><rdf:Description><dc:creator>RealFaviconGenerator</dc:creator><dc:source>https://realfavicongenerator.net</dc:source></rdf:Description></rdf:RDF></metadata><path d="M50 0l50 29v57L50 115 0 86V29z" fill="#6b635b" stroke="#d2604a" stroke-width="1.75"></path><path d="M50 4L96.5 31V84L50 111 3.5 84V31Z" fill="none" stroke="#d2604a" stroke-width="0.7"></path><g transform="translate(0,1.5)"><rect x="25" y="20" width="50" height="72" rx="2" fill="none" stroke="#c7bfb5" stroke-width="1"></rect><path d="M25 28H22M25 36H22M25 44H22M25 52H22M25 60H22M25 68H22M25 76H22M25 84H22M75 28H78M75 36H78M75 44H78M75 52H78M75 60H78M75 68H78M75 76H78M75 84H78" stroke="#c7bfb5" stroke-width="1"></path><circle cx="30" cy="26" r="1.4" fill="#d2604a"></circle><path d="M40 50V68M33 55H47M33 68 40 57 47 68M60 50V68M53 55H67M53 68 60 57 67 68" fill="none" stroke="#fff" stroke-width="2" stroke-linecap="round" stroke-linejoin="round"></path><path d="M50 30V48M43 35H57M43 48 50 37 57 48" fill="none" stroke="#d2604a" stroke-width="2" stroke-linecap="round" stroke-linejoin="round"></path><path d="M43.19 82H41.81V77.34Q41.81 76.81 41.76 76.32Q41.72 75.83 41.56 75.54Q41.39 75.23 41.08 75.06Q40.76 74.9 40.17 74.9Q39.59 74.9 39.01 75.19Q38.43 75.48 37.86 75.93Q37.88 76.1 37.89 76.32Q37.91 76.54 37.91 76.76V82H36.53V77.34Q36.53 76.8 36.48 76.31Q36.43 75.83 36.28 75.53Q36.11 75.22 35.8 75.06Q35.48 74.9 34.89 74.9Q34.33 74.9 33.76 75.18Q33.19 75.46 32.63 75.89V82H31.25V73.82H32.63V74.73Q33.27 74.19 33.91 73.89Q34.55 73.59 35.28 73.59Q36.11 73.59 36.69 73.94Q37.28 74.29 37.56 74.92Q38.4 74.21 39.09 73.9Q39.77 73.59 40.56 73.59Q41.91 73.59 42.55 74.41Q43.19 75.23 43.19 76.69Z M54.31 77.91Q54.31 79.91 53.29 81.07Q52.26 82.23 50.54 82.23Q48.8 82.23 47.78 81.07Q46.76 79.91 46.76 77.91Q46.76 75.91 47.78 74.75Q48.8 73.59 50.54 73.59Q52.26 73.59 53.29 74.75Q54.31 75.91 54.31 77.91ZM52.89 77.91Q52.89 76.32 52.27 75.55Q51.65 74.78 50.54 74.78Q49.42 74.78 48.8 75.55Q48.18 76.32 48.18 77.91Q48.18 79.45 48.8 80.25Q49.43 81.04 50.54 81.04Q51.64 81.04 52.26 80.25Q52.89 79.47 52.89 77.91Z M63.05 75.32H62.97Q62.67 75.25 62.38 75.21Q62.09 75.18 61.69 75.18Q61.06 75.18 60.46 75.46Q59.87 75.75 59.32 76.19V82H57.94V73.82H59.32V75.03Q60.14 74.37 60.77 74.09Q61.39 73.82 62.04 73.82Q62.4 73.82 62.56 73.84Q62.73 73.86 63.05 73.91Z M67.32 72.45H65.77V71.02H67.32ZM67.24 82H65.86V73.82H67.24Z" fill="#fff"></path></g></svg>