<svg xmlns="http://www.w3.org/2000/svg" viewBox="-2 -2 104 119" width="104" height="119"><metadata><rdf:RDF xmlns:rdf="http://www.w3.org/1999/02/22-rdf-syntax-ns#" xmlns:dc="http://purl.org/dc/elements/1.1/"><rdf:Description><dc:creator>RealFaviconGenerator</dc:creator><dc:source>https://realfavicongenerator.net</dc:source></rdf:Description></rdf:RDF></metadata><path d="M50 0l50 29v57L50 115 0 86V29z" fill="#6b635b" stroke="#d2604a" stroke-width="1.75"></path><path d="M50 4L96.5 31V84L50 111 3.5 84V31Z" fill="none" stroke="#d2604a" stroke-width="0.7"></path><g transform="translate(0,1.5)"><rect x="25" y="20" width="50" height="72" rx="2" fill="none" stroke="#c7bfb5" stroke-width="1"></rect><path d="M25 28H22M25 36H22M25 44H22M25 52H22M25 60H22M25 68H22M25 76H22M25 84H22M75 28H78M75 36H78M75 44H78M75 52H78M75 60H78M75 68H78M75 76H78M75 84H78" stroke="#c7bfb5" stroke-width="1"></path><circle cx="30" cy="26" r="1.4" fill="#d2604a"></circle><path d="M40 50V68M33 55H47M33 68 40 57 47 68M60 50V68M53 55H67M53 68 60 57 67 68" fill="none" stroke="#fff" stroke-width="2" stroke-linecap="round" stroke-linejoin="round"></path><path d="M50 30V48M43 35H57M43 48 50 37 57 48" fill="none" stroke="#d2604a" stroke-width="2" stroke-linecap="round" stroke-linejoin="round"></path><text x="50" y="82" font-size="15" letter-spacing="1.5" text-anchor="middle" font-family="Verdana,sans-serif" fill="#fff">mori</text></g></svg>