<svg xmlns="http://www.w3.org/2000/svg" fill="none" viewBox="0 0 720 310"><defs><style>text{font-family:-apple-system,BlinkMacSystemFont,&quot;Segoe UI&quot;,&quot;Helvetica Neue&quot;,&quot;Hiragino Sans&quot;,sans-serif}.mono{font-family:ui-monospace,SFMono-Regular,&quot;SF Mono&quot;,Menlo,Consolas,monospace}.process-box{fill:none;stroke:#c7bfb5;stroke-width:.75}.process-label{font-size:12.5px;fill:#6b635b;font-weight:400}.conn{stroke:#c7bfb5;stroke-width:.75}.arrow{fill:#c7bfb5}.annotation{font-size:11px;fill:#8a8079}</style></defs><rect width="220" height="60" x="250" y="20" rx="1" style="fill:none;stroke:#d2604a;stroke-width:1"/><text x="360" y="46" style="font-size:13px;fill:#d2604a;font-weight:500;letter-spacing:.5px" text-anchor="middle">Shared memory</text><text x="360" y="64" style="font-size:11px;fill:#8a8079" text-anchor="middle">OS-backed</text><text x="200" y="46" class="mono" style="font-size:11px;fill:#8a8079" text-anchor="end">share(obj)</text><text x="200" y="62" class="annotation" text-anchor="end">write once</text><path d="M205 50h56" style="stroke:#c7bfb5;stroke-width:.75;stroke-dasharray:2 3"/><path d="m269 50-8-4v8z" style="fill:#d2604a"/><path d="M360 80v60M100 140h520" class="conn"/><text x="370" y="130" class="annotation mono">mmap</text><path d="M100 140v54" class="conn"/><path d="m100 198-4-7h8z" class="arrow"/><path d="M273 140v54" class="conn"/><path d="m273 198-4-7h8z" class="arrow"/><path d="M447 140v54" class="conn"/><path d="m447 198-4-7h8z" class="arrow"/><path d="M620 140v54" class="conn"/><path d="m620 198-4-7h8z" class="arrow"/><rect width="120" height="34" x="40" y="202" class="process-box" rx="1"/><text x="100" y="223" class="process-label" text-anchor="middle">Process 1</text><rect width="120" height="34" x="213" y="202" class="process-box" rx="1"/><text x="273" y="223" class="process-label" text-anchor="middle">Process 2</text><rect width="120" height="34" x="387" y="202" class="process-box" rx="1"/><text x="447" y="223" class="process-label" text-anchor="middle">Process 3</text><rect width="120" height="34" x="560" y="202" class="process-box" rx="1"/><text x="620" y="223" class="process-label" text-anchor="middle">Process 4</text><text x="360" y="270" style="font-size:11px;fill:#8a8079;font-style:italic" text-anchor="middle">ALTREP wrappers — zero-copy reads</text></svg>